<?xml version="1.0" standalone="yes"?>
<svg xmlns="http://www.w3.org/2000/svg" width="200" height="200">
<path style="fill:#ffffff; stroke:none;" d="M0 0L0 200L200 200L200 0L0 0z"/>
<path style="fill:#fec401; stroke:none;" d="M30 100L40 100C42.6153 87.855 54.7651 77.1906 66.9853 85.1335C72.8027 88.9147 74.373 95.2895 81 98C73.6597 107.752 64.5702 123.925 50.0147 115.467C44.7471 112.406 43.8342 106.196 39.4406 103.028C37.0239 101.285 32.8114 102 30 102C31.0273 124.427 58.3341 136.793 75.9853 122.61C80.2151 119.211 84.6117 113.601 85.1767 108C85.4147 105.64 84.2295 103.493 84.4205 101.17C84.5995 98.9932 85.868 97.2325 85.7569 94.9606C85.0539 80.5799 68.2214 70.4587 55 72.3009C40.5669 74.312 30.3106 85.4212 30 100z"/>
<path style="fill:#ffffff; stroke:none;" d="M40 100L54 100L54 103L41 103C42.3671 115.349 56.3897 121.43 66.9961 115.583C72.0265 112.809 74.225 108.203 76 103L64 103L64 101C68.2434 101 72.3973 101.461 76 99C71.7394 97.7406 67.4226 98 63 98L63 105L58 105C58.1216 94.709 66.3536 93.9415 75 96C72.719 84.2126 59.2909 78.6043 49.0401 84.7894C43.4221 88.1792 40.8624 93.7289 40 100z"/>
<path style="fill:#040301; stroke:none;" d="M58 105L63 105L63 98C67.4385 98 71.6623 97.9673 76 99C72.0057 100.922 68.3797 100.997 64 101L64 103C70.3192 103 77.63 104.422 81 98C76.0809 95.5312 63.2171 91.9292 59.0278 97.564C57.5657 99.5306 58.0081 102.704 58 105M105 95L105 97L110 97L110 95L105 95M139 95L139 98L134 98L134 100L139 100L139 105L144 105L144 100L151 100L151 98L144 98L144 95L139 95M86.1528 98.7423C83.3269 100.043 83.2533 103.121 86.1528 104.397C89.1101 105.699 96.7583 105.84 99.6813 104.397C102.137 103.184 102.137 99.8161 99.6813 98.6034C96.6845 97.1234 89.1547 97.3609 86.1528 98.7423M105 98L105 105L110 105L110 98L105 98M113 98L113 105L118 105L118 100C122.539 100.054 125.572 100.298 127 105L132 105C131.263 95.3346 120.275 98 113 98M30 100L30 102L54 103L54 100L30 100z"/>
<path style="fill:#ffffff; stroke:none;" d="M88 100L88 103L97 103L97 100L88 100z"/>
</svg>
